<svg id="Layer_1" data-name="Layer 1" xmlns="http://www.w3.org/2000/svg" width="987.12" height="268.1" viewBox="0 0 987.12 268.1"><defs><style>.cls-1{fill:#fff;}</style></defs><title>MUNCH_Logo_RGB_White</title><path class="cls-1" d="M197.05,2.8,292.6,265.3H237.25L189.36,133.7h-2.81l19.6,131.6h-24.5l-76.3-131.6H102.6l47.9,131.6h-55L0,2.8H69.65l75.6,131.6h2.8L127.4,2.8ZM415.31,134.05,367.54,2.8H315l21.35,66.5,47.88,131.6c1.75,5.25,2.87,9.45,2.87,12.6,0,6.3-3.5,9.1-9.45,9.1-9.1,0-16.21-6.3-21.81-21.7L308,69.3l-27-66.5H228.23L276,134.05l25.73,66.15c15.4,41,49.35,67.9,90.3,67.9,30.45,0,49.7-16.1,49.7-42.7,0-7.7-1.75-16.1-4.55-25.2ZM495.41,2.8l47.9,131.6h-2.84L445.62,2.8h-46.9l95.54,262.5h51.11l-47.9-131.6h2.75l91.35,131.6h51.09L547.12,2.8ZM931.74,265.3h55.38L891.58,2.8H836.19l36,99.05H845L809,2.8h-55.3l95.55,262.5h55.3L863.88,153.65H891.1ZM778.85,153.65H719.47l17.38,47.25c1.75,4.9,2.8,9.1,2.8,12.25,0,6.65-3.86,9.45-9.81,9.45-9.1,0-17.14-6.3-22.4-21.7L684,134.05c-27.65-73.15-28.35-77-28.35-80.15,0-6.65,3.5-9.45,9.45-9.45,9.1,0,16.8,6.3,22.4,21.7l13.13,35.7H760s-2.8-3.5-10.85-25.9C733,32.55,694.14,0,651.09,0c-32.9,0-51.45,18.9-51.45,46.55,0,9.1,1.75,18.9,24.5,87.5l22.75,58.1c17.15,43.4,54.25,76,97.66,76,32.9,0,51.8-18.55,51.8-46.55a95,95,0,0,0-5.25-29.4C778.5,157.15,778.85,153.65,778.85,153.65Z" transform="translate(0)"/></svg>